<svg width="26" height="26" viewBox="0 0 26 26" fill="none" xmlns="http://www.w3.org/2000/svg">
<circle cx="13" cy="13" r="13" fill="white"/>
<path d="M17.8036 13.5025C17.7315 13.4411 17.6441 13.4019 17.5513 13.3891C17.4586 13.3764 17.3642 13.3907 17.279 13.4305C16.7507 13.6793 16.1762 13.8073 15.5952 13.8058C14.5204 13.8045 13.4897 13.3659 12.7279 12.5859C11.966 11.8058 11.5348 10.7474 11.5282 9.64146C11.5305 9.29486 11.5724 8.94974 11.6531 8.61323C11.6702 8.52354 11.6638 8.43077 11.6345 8.34448C11.6052 8.25819 11.554 8.1815 11.4863 8.12232C11.4187 8.06313 11.3368 8.02359 11.2494 8.00776C11.1619 7.99194 11.0718 8.0004 10.9886 8.03228C10.2053 8.39468 9.52446 8.95602 9.00993 9.66356C8.4954 10.3711 8.16411 11.2016 8.04718 12.0771C7.93025 12.9525 8.03152 13.8442 8.34147 14.6684C8.65143 15.4925 9.15989 16.222 9.8191 16.7884C10.4783 17.3548 11.2666 17.7395 12.11 17.9063C12.9534 18.0731 13.8241 18.0166 14.6404 17.742C15.4567 17.4674 16.1918 16.9838 16.7765 16.3367C17.3613 15.6895 17.7766 14.9 17.9835 14.0423C18.0086 13.9441 18.005 13.8404 17.973 13.7443C17.941 13.6483 17.882 13.5641 17.8036 13.5025ZM13.0571 16.9419C12.2186 16.9358 11.4024 16.6632 10.7203 16.1613C10.0382 15.6595 9.5235 14.953 9.24672 14.1385C8.96993 13.324 8.94456 12.4414 9.1741 11.6116C9.40363 10.7817 9.87684 10.0451 10.5289 9.50265V9.64146C10.5303 11.0237 11.0644 12.3488 12.0143 13.3262C12.9641 14.3036 14.252 14.8532 15.5952 14.8546C15.9479 14.8559 16.2997 14.818 16.6444 14.7415C16.2996 15.4127 15.7833 15.9743 15.1511 16.3657C14.5189 16.7571 13.7949 16.9634 13.0571 16.9625V16.9419Z" fill="#121927"/>
</svg>
