<svg width="26" height="26" viewBox="0 0 26 26" fill="none" xmlns="http://www.w3.org/2000/svg">
<circle cx="13" cy="13" r="13" fill="white"/>
<path d="M8.548 16.5L8.051 16.997C7.92062 17.1282 7.84745 17.3056 7.84745 17.4905C7.84745 17.6754 7.92062 17.8528 8.051 17.984C8.18215 18.1144 8.35957 18.1876 8.5445 18.1876C8.72943 18.1876 8.90685 18.1144 9.038 17.984L9.535 17.487C9.64968 17.3531 9.7096 17.1808 9.7028 17.0047C9.69599 16.8285 9.62296 16.6614 9.49829 16.5367C9.37363 16.412 9.20651 16.339 9.03034 16.3322C8.85416 16.3254 8.68191 16.3853 8.548 16.5ZM8.1 13C8.1 12.8143 8.02625 12.6363 7.89497 12.505C7.7637 12.3737 7.58565 12.3 7.4 12.3H6.7C6.51435 12.3 6.3363 12.3737 6.20503 12.505C6.07375 12.6363 6 12.8143 6 13C6 13.1857 6.07375 13.3637 6.20503 13.495C6.3363 13.6263 6.51435 13.7 6.7 13.7H7.4C7.58565 13.7 7.7637 13.6263 7.89497 13.495C8.02625 13.3637 8.1 13.1857 8.1 13ZM13 8.1C13.1857 8.1 13.3637 8.02625 13.495 7.89497C13.6263 7.7637 13.7 7.58565 13.7 7.4V6.7C13.7 6.51435 13.6263 6.3363 13.495 6.20503C13.3637 6.07375 13.1857 6 13 6C12.8143 6 12.6363 6.07375 12.505 6.20503C12.3737 6.3363 12.3 6.51435 12.3 6.7V7.4C12.3 7.58565 12.3737 7.7637 12.505 7.89497C12.6363 8.02625 12.8143 8.1 13 8.1ZM8.548 9.535C8.67838 9.66432 8.85436 9.73723 9.038 9.738C9.13012 9.73853 9.22145 9.72088 9.30673 9.68604C9.39202 9.6512 9.46959 9.59988 9.535 9.535C9.66538 9.40385 9.73855 9.22643 9.73855 9.0415C9.73855 8.85657 9.66538 8.67915 9.535 8.548L9.038 8.051C8.90409 7.93632 8.73184 7.8764 8.55566 7.8832C8.37949 7.89001 8.21237 7.96304 8.08771 8.08771C7.96304 8.21237 7.89001 8.37949 7.8832 8.55566C7.8764 8.73184 7.93632 8.90409 8.051 9.038L8.548 9.535ZM16.948 9.738C17.1316 9.73723 17.3076 9.66432 17.438 9.535L17.935 9.038C18.0083 8.97525 18.0678 8.89802 18.1098 8.81118C18.1518 8.72433 18.1754 8.62974 18.1792 8.53334C18.1829 8.43693 18.1666 8.3408 18.1314 8.25097C18.0963 8.16115 18.0429 8.07956 17.9747 8.01134C17.9064 7.94313 17.8249 7.88975 17.735 7.85455C17.6452 7.81936 17.5491 7.80312 17.4527 7.80684C17.3563 7.81056 17.2617 7.83418 17.1748 7.87619C17.088 7.91821 17.0108 7.97772 16.948 8.051L16.5 8.548C16.3696 8.67915 16.2964 8.85657 16.2964 9.0415C16.2964 9.22643 16.3696 9.40385 16.5 9.535C16.6234 9.65775 16.7881 9.73013 16.962 9.738H16.948ZM19.3 12.3H18.6C18.4143 12.3 18.2363 12.3737 18.105 12.505C17.9737 12.6363 17.9 12.8143 17.9 13C17.9 13.1857 17.9737 13.3637 18.105 13.495C18.2363 13.6263 18.4143 13.7 18.6 13.7H19.3C19.4857 13.7 19.6637 13.6263 19.795 13.495C19.9263 13.3637 20 13.1857 20 13C20 12.8143 19.9263 12.6363 19.795 12.505C19.6637 12.3737 19.4857 12.3 19.3 12.3ZM13 17.9C12.8143 17.9 12.6363 17.9737 12.505 18.105C12.3737 18.2363 12.3 18.4143 12.3 18.6V19.3C12.3 19.4857 12.3737 19.6637 12.505 19.795C12.6363 19.9263 12.8143 20 13 20C13.1857 20 13.3637 19.9263 13.495 19.795C13.6263 19.6637 13.7 19.4857 13.7 19.3V18.6C13.7 18.4143 13.6263 18.2363 13.495 18.105C13.3637 17.9737 13.1857 17.9 13 17.9ZM17.452 16.5C17.319 16.426 17.1655 16.3974 17.0148 16.4185C16.8641 16.4395 16.7244 16.5092 16.6168 16.6168C16.5092 16.7244 16.4395 16.8641 16.4185 17.0148C16.3974 17.1655 16.426 17.319 16.5 17.452L16.997 17.949C17.1282 18.0794 17.3056 18.1526 17.4905 18.1526C17.6754 18.1526 17.8528 18.0794 17.984 17.949C18.1144 17.8178 18.1876 17.6404 18.1876 17.4555C18.1876 17.2706 18.1144 17.0932 17.984 16.962L17.452 16.5ZM13 9.15C12.2385 9.15 11.4942 9.3758 10.8611 9.79884C10.2279 10.2219 9.73446 10.8232 9.44306 11.5267C9.15167 12.2302 9.07542 13.0043 9.22398 13.7511C9.37253 14.4979 9.73921 15.1839 10.2776 15.7224C10.8161 16.2608 11.5021 16.6275 12.2489 16.776C12.9957 16.9246 13.7698 16.8483 14.4733 16.5569C15.1768 16.2655 15.7781 15.7721 16.2012 15.1389C16.6242 14.5058 16.85 13.7615 16.85 13C16.8481 11.9795 16.4419 11.0013 15.7203 10.2797C14.9987 9.55807 14.0205 9.15185 13 9.15ZM13 15.45C12.5154 15.45 12.0418 15.3063 11.6389 15.0371C11.236 14.7679 10.9219 14.3853 10.7365 13.9376C10.5511 13.4899 10.5025 12.9973 10.5971 12.522C10.6916 12.0468 10.925 11.6102 11.2676 11.2676C11.6102 10.925 12.0468 10.6916 12.522 10.5971C12.9973 10.5025 13.4899 10.5511 13.9376 10.7365C14.3853 10.9219 14.7679 11.236 15.0371 11.6389C15.3063 12.0418 15.45 12.5154 15.45 13C15.45 13.6498 15.1919 14.2729 14.7324 14.7324C14.2729 15.1919 13.6498 15.45 13 15.45Z" fill="#121927"/>
</svg>
