<svg width="140" height="140" viewBox="0 0 140 140" fill="none" xmlns="http://www.w3.org/2000/svg">
<path d="M1.5752 133.924V109.554C1.5752 107.644 2.02488 106.155 2.92425 105.085C3.82363 104.015 5.33684 103.481 7.46388 103.482C9.58967 103.482 11.1029 104.016 12.0035 105.085C12.9041 106.153 13.3532 107.643 13.3507 109.554V133.924C13.3507 135.835 12.9016 137.325 12.0035 138.393C11.1054 139.462 9.59219 139.997 7.46388 139.998C5.33558 139.998 3.82237 139.463 2.92425 138.393C2.02614 137.324 1.57645 135.834 1.5752 133.924ZM4.93935 133.826C4.93935 134.937 5.11293 135.79 5.4601 136.366C5.80727 136.942 6.47332 137.228 7.46388 137.228C8.45445 137.228 9.12049 136.941 9.46766 136.366C9.81483 135.792 9.98653 134.945 9.98653 133.826V109.653C9.98653 108.541 9.81357 107.698 9.46766 107.125C9.12175 106.552 8.45382 106.268 7.46388 106.274C6.47395 106.274 5.80602 106.558 5.4601 107.125C5.11419 107.692 4.94061 108.535 4.93935 109.653V133.826Z" fill="#121927"/>
<path d="M19.0039 139.705V103.773H22.3681V136.913H27.885V139.705H19.0039Z" fill="#121927"/>
<path d="M32.7944 139.705V103.773H38.5058C40.6441 103.773 42.124 104.263 42.9454 105.242C43.7668 106.222 44.1737 107.676 44.1661 109.604V133.879C44.1661 135.807 43.758 137.26 42.9416 138.24C42.1253 139.219 40.6466 139.708 38.5058 139.705H32.7944ZM36.1341 136.913H37.8907C38.9963 136.913 39.763 136.714 40.1907 136.316C40.6183 135.918 40.8328 135.194 40.8341 134.143V109.36C40.8341 108.307 40.6196 107.578 40.1907 107.173C39.7617 106.768 38.9951 106.566 37.8907 106.567H36.1341V136.913Z" fill="#121927"/>
<path d="M56.0522 106.567V103.773H66.8825V106.567H63.1466V139.705H59.807V106.567H56.0522Z" fill="#121927"/>
<path d="M71.124 139.705V103.773H77.3504C79.1316 103.773 80.4391 104.044 81.2731 104.586C82.1071 105.129 82.5234 106.234 82.5222 107.903V117.013C82.5222 118.39 82.2417 119.371 81.6806 119.954C81.1196 120.537 80.1876 120.852 78.8844 120.901V120.999C80.1423 121.047 81.0857 121.318 81.7146 121.812C82.3435 122.307 82.658 123.145 82.658 124.327V135.582C82.6822 136.314 82.565 137.043 82.3127 137.732C82.1056 138.262 81.7219 138.707 81.224 138.996C80.7234 139.281 80.1742 139.474 79.6033 139.566C78.8537 139.674 78.0966 139.722 77.3391 139.711L71.124 139.705ZM74.4882 119.663H76.7146C77.5561 119.663 78.1787 119.478 78.5825 119.107C78.9863 118.736 79.1888 118.052 79.1901 117.054V108.997C79.1901 108.024 78.9593 107.377 78.4976 107.053C78.036 106.729 77.3184 106.567 76.3448 106.567H74.4882V119.663ZM74.4882 136.913H76.5184C77.4894 136.913 78.2027 136.75 78.658 136.425C79.1133 136.101 79.3398 135.453 79.3372 134.484V124.618C79.3372 123.793 79.1146 123.221 78.6693 122.906C78.224 122.591 77.5731 122.426 76.7146 122.426H74.4882V136.913Z" fill="#121927"/>
<path d="M88.479 139.705V103.773H91.8432V139.705H88.479Z" fill="#121927"/>
<path d="M97.4941 139.705V103.773H100.86V136.913H106.375V139.705H97.4941Z" fill="#121927"/>
<path d="M111.112 139.705V103.773H114.476V139.705H111.112Z" fill="#121927"/>
<path d="M119.188 134.726V129.793H122.528V134.532C122.528 136.329 123.237 137.228 124.656 137.228C126.008 137.228 126.684 136.329 126.684 134.532V129.502C126.674 128.297 126.341 127.116 125.72 126.076L120.797 117.671C120.355 116.958 119.994 116.2 119.72 115.41C119.486 114.654 119.374 113.867 119.386 113.077V108.754C119.386 107.005 119.836 105.688 120.735 104.805C121.635 103.922 122.941 103.481 124.656 103.482C126.502 103.482 127.843 103.899 128.677 104.733C129.511 105.567 129.927 106.826 129.926 108.511V113.077H126.586V108.713C126.586 107.937 126.445 107.336 126.165 106.916C125.886 106.495 125.382 106.284 124.656 106.284C123.93 106.284 123.428 106.495 123.146 106.916C122.865 107.336 122.726 107.937 122.726 108.713V112.504C122.726 113.8 122.982 114.878 123.494 115.736L128.813 124.701C129.622 126.02 130.042 127.534 130.024 129.074V134.735C130.024 136.42 129.55 137.718 128.601 138.627C127.653 139.536 126.338 139.994 124.656 140C122.792 140 121.414 139.574 120.524 138.723C119.633 137.872 119.188 136.54 119.188 134.726Z" fill="#121927"/>
<path d="M134.713 139.705V103.773H138.077V139.705H134.713Z" fill="#121927"/>
<path d="M24.4182 26.9269H15.8879V94.6078H8.53419V26.9269H0V20.7178H24.4182V26.9269Z" fill="#121927"/>
<path d="M81.1445 45.1406V32.835C81.1445 30.9043 80.7001 29.3523 79.8112 28.1791C78.9223 27.0059 77.5541 26.4193 75.7066 26.4193C73.9275 26.4193 72.5768 27.0059 71.6543 28.1791C70.7319 29.3523 70.27 30.9043 70.2687 32.835V82.4988C70.2687 84.432 70.7306 85.9846 71.6543 87.1566C72.5781 88.3286 73.9288 88.9146 75.7066 88.9146C77.5541 88.9146 78.9223 88.3286 79.8112 87.1566C80.7001 85.9846 81.1445 84.432 81.1445 82.4988V62.7332H76.3452V56.5241H88.6085V83.1205C88.6085 86.9832 87.4178 90.0358 85.0362 92.2783C82.6546 94.5208 79.5447 95.6421 75.7066 95.6421C71.9369 95.6421 68.8625 94.5208 66.4835 92.2783C64.1045 90.0358 62.9137 86.9832 62.9111 83.1205V32.204C62.9111 28.3425 64.1019 25.2899 66.4835 23.0461C68.8651 20.8024 71.9394 19.683 75.7066 19.688C79.5435 19.688 82.6533 20.8093 85.0362 23.0518C87.419 25.2943 88.6098 28.3469 88.6085 32.2096V45.1463L81.1445 45.1406Z" fill="#121927"/>
<path d="M115.935 56.564H104.213V62.7731H115.935V56.564Z" fill="#121927"/>
<path d="M105.029 51.4536V48.3434V20.7178H97.6733V94.6078H105.029V59.4808V57.6628V51.4536Z" fill="#121927"/>
<path d="M115.693 20.7178V48.3434V51.4536V57.6628V59.4808V94.6078H123.049V20.7178H115.693Z" fill="#121927"/>
<path d="M132.646 20.8672H140V94.7572H132.646V20.8672Z" fill="#121927"/>
<path d="M52.167 3.36376C49.7855 1.12251 46.6756 0.0012521 42.8375 0C39.0703 0 35.9959 1.12125 33.6144 3.36376C31.2328 5.60626 30.042 8.65887 30.042 12.5216V94.6078H37.3957V13.1433C37.3957 11.2125 37.8576 9.65993 38.7813 8.48546C39.705 7.31099 41.0571 6.72564 42.8375 6.72939C44.6862 6.72939 46.0544 7.31537 46.942 8.48733C47.8296 9.6593 48.2741 11.2119 48.2754 13.1451V94.6078H55.7394V12.5216C55.7394 8.66013 54.5486 5.60751 52.167 3.36376Z" fill="#121927"/>
</svg>
